# xmcd
#
# Track frame offsets: 
#        150
#        12669
#        24549
#        35989
#        50745
#        60010
#        71196
#        84189
#        97286
#        109783
#        123337
#        136214
#        149010
#        160288
#        173078
#        184844
#        196204
#        208252
#        219620
#        231369
#        243892
#        256019
#        266123
#        278235
#        292050
#        302159
#        317686
#        330589
#
# Disc length: 4580 seconds
#
# Revision: 1
# Processed by: cddbd v1.5.2PL0 Copyright (c) Steve Scherf et al.
# Submitted via: ExactAudioCopy v0.95b4
#
DISCID=b311e21c
DTITLE=Various Artist - Swingbillies
DYEAR=1900
DGENRE=Swingbilly
TTITLE0=Jimmie Dolan and His Texas Ramblers - I Knew That You Were Fooli
TTITLE0=n' All Along
TTITLE1=Homer Clemons and His Texas Swingbillies - Little Beaver
TTITLE2=Rocky Morgan and His Triple R Boys - You Can't Rope A Steer In A
TTITLE2=Taxi
TTITLE3=Jimmie Dolan and His Texas Ramblers - One Million Railroad Ties 
TTITLE3=From Home (Take 1)
TTITLE4=Tommy Little and The Sunrise Rangers - High Geared Daddy
TTITLE5=Jimmy Bryant and The Sons Of The Saddle - Holiday For Guitar
TTITLE6=Jimmie Dolan and His Texas Ramblers - Tennessee Baby
TTITLE7=Bill Woods and His Orange Blossom Playboys - Trusting You
TTITLE8=Rocky Morgan and His Triple R Boys - Life's A Funny Proposition 
TTITLE8=(After All)
TTITLE9=Jody Webb and His Round Up Boys - The Honey Jump (Part 1)
TTITLE10=Jimmie Dolan and His Texas Ramblers - Baby Did You Lie To Me
TTITLE11=Homer Clemons and His Texas Swingbillies - Operation Blues
TTITLE12=Jimmy Bryant and The Sons Of The Saddle - Boogie Barn Dance
TTITLE13=Papa Cairo and His Boys - Big Texas #2
TTITLE14=Joe Bean and His San Antonians - Those Wonderful Days With You
TTITLE15=Rocky Morgan and His Triple R Boys - Turn That Gun Around
TTITLE16=Chuck Guillory and His Rhythm Boys - You Just Wait And See
TTITLE17=Jimmie Dolan and His Texas Ramblers - If You Care Again (Take 1
TTITLE17=)
TTITLE18=Jack Tucker and Dusty Rhodes - Dusty Road Boogie
TTITLE19=Bill Woods and His Orange Blossom Playboys - Have I Got A Chanc
TTITLE19=e With You
TTITLE20=Louie Hooks and His Rhythm Five - Pine Club Boogie
TTITLE21=Ted Shelton and His Bryan County Boys - Lover Boy
TTITLE22=Jack Tucker and Dusty Rhodes - Mind Your Own Business
TTITLE23=Jimmie Dolan and His Texas Ramblers - Blue Yodel (Take 2)
TTITLE24=Ted Shelton and His Bryan County Boys - My Heart Lied To Me
TTITLE25=Papa Cairo and His Boys - Kooche Kooche
TTITLE26=Jimmie Dolan and His Texas Ramblers - Walkin' The Floor Over Yo
TTITLE26=u (Take 1)
TTITLE27=Cliff Bruner and His Texas Wanderers - San Antonio Blues
EXTD=
EXTT0=
EXTT1=
EXTT2=
EXTT3=
EXTT4=
EXTT5=
EXTT6=
EXTT7=
EXTT8=
EXTT9=
EXTT10=
EXTT11=
EXTT12=
EXTT13=
EXTT14=
EXTT15=
EXTT16=
EXTT17=
EXTT18=
EXTT19=
EXTT20=
EXTT21=
EXTT22=
EXTT23=
EXTT24=
EXTT25=
EXTT26=
EXTT27=
PLAYORDER=
